# xmcd
#
# Track frame offsets: 
#        150
#        18977
#        36120
#        48685
#        63297
#        78447
#        92247
#        106407
#        120432
#        136702
#        150127
#        163620
#        198177
#
# Disc length: 2786 seconds
#
# Revision: 2
# Processed by: cddbd v1.5.2PL0 Copyright (c) Steve Scherf et al.
# Submitted via: ExactAudioCopy v1.0b4
#
DISCID=970ae00d
DTITLE=Maciel Melo - Janelas
DYEAR=1996
DGENRE=Folklore
TTITLE0=Nos Tempos De Menino
TTITLE1=Pra Ninar Meu Coração
TTITLE2=Que Nem Pandeiro
TTITLE3=Janelas
TTITLE4=O Velho Arvoredo
TTITLE5=Toque Sanfonerim
TTITLE6=Forró Z
TTITLE7=Toda Liberdade
TTITLE8=Nas Entranhas Da Saudade
TTITLE9=Sanfoneiro Bom
TTITLE10=O Recado
TTITLE11=Paisagem De Interior
TTITLE12=O Bailado Dos Olhos
EXTD=\n\n
EXTT0=
EXTT1=
EXTT2=
EXTT3=
EXTT4=
EXTT5=
EXTT6=
EXTT7=
EXTT8=
EXTT9=
EXTT10=
EXTT11=
EXTT12=
PLAYORDER=
